<svg width="336" height="270" viewBox="0 0 336 270" fill="none" xmlns="http://www.w3.org/2000/svg">
<line x1="68.5" y1="2.62138e-08" x2="68.5" y2="270" stroke="#FF6125"/>
<line x1="116.5" x2="116.5" y2="270" stroke="#FF6125"/>
<line x1="164.5" x2="164.5" y2="270" stroke="#FF6125"/>
<line x1="164.5" x2="164.5" y2="270" stroke="#FF6125"/>
<line x1="164.5" x2="164.5" y2="270" stroke="#FF6125"/>
<line x1="216.5" x2="216.5" y2="270" stroke="#FF6125"/>
<line x1="270.5" x2="270.5" y2="270" stroke="#FF6125"/>
<line y1="-0.5" x2="336.006" y2="-0.5" transform="matrix(0.999983 -0.0058308 0.00422387 0.999991 0 34)" stroke="#FF6125"/>
<line y1="-0.5" x2="336.006" y2="-0.5" transform="matrix(0.999983 -0.0058308 0.00422387 0.999991 0 83)" stroke="#FF6125"/>
<line y1="-0.5" x2="336.006" y2="-0.5" transform="matrix(0.999983 -0.0058308 0.00422387 0.999991 0 132)" stroke="#FF6125"/>
<line y1="-0.5" x2="336.006" y2="-0.5" transform="matrix(0.999983 -0.0058308 0.00422387 0.999991 0 181)" stroke="#FF6125"/>
<line y1="-0.5" x2="336.006" y2="-0.5" transform="matrix(0.999983 -0.0058308 0.00422387 0.999991 0 230)" stroke="#FF6125"/>
</svg>
